<svg width="20" height="15" viewBox="0 0 20 15" fill="none" xmlns="http://www.w3.org/2000/svg">
<g id="Group 21">
<path id="Vector" d="M17.7778 0.277771H2.22222C1.63285 0.277771 1.06762 0.511897 0.650874 0.928645C0.234126 1.34539 0 1.91062 0 2.49999L0 4.72222H20V2.49999C20 1.91062 19.7659 1.34539 19.3491 0.928645C18.9324 0.511897 18.3671 0.277771 17.7778 0.277771Z" fill="#EEEEEE"/>
<path id="Vector_2" d="M0 4.72223H20V10.2778H0V4.72223Z" fill="#22408C"/>
<path id="Vector_3" d="M20 12.5C20 13.0894 19.7659 13.6546 19.3491 14.0713C18.9324 14.4881 18.3671 14.7222 17.7778 14.7222H2.22222C1.63285 14.7222 1.06762 14.4881 0.650874 14.0713C0.234126 13.6546 0 13.0894 0 12.5V10.2778H20V12.5Z" fill="#CE2028"/>
</g>
</svg>
