<svg width="24" height="24" viewBox="0 0 24 24" fill="none" xmlns="http://www.w3.org/2000/svg">
<circle cx="12" cy="12" r="11" fill="black" stroke="#FFAB48" stroke-width="2"/>
<path d="M8 17.6364V6H12.5909C13.4697 6 14.2197 6.1572 14.8409 6.47159C15.4659 6.7822 15.9413 7.22348 16.267 7.79545C16.5966 8.36364 16.7614 9.0322 16.7614 9.80114C16.7614 10.5739 16.5947 11.2386 16.2614 11.7955C15.928 12.3485 15.4451 12.7727 14.8125 13.0682C14.1837 13.3636 13.4223 13.5114 12.5284 13.5114H9.45455V11.5341H12.1307C12.6004 11.5341 12.9905 11.4697 13.3011 11.3409C13.6117 11.2121 13.8428 11.0189 13.9943 10.7614C14.1496 10.5038 14.2273 10.1837 14.2273 9.80114C14.2273 9.41477 14.1496 9.08902 13.9943 8.82386C13.8428 8.55871 13.6098 8.35795 13.2955 8.22159C12.9848 8.08144 12.5928 8.01136 12.1193 8.01136H10.4602V17.6364H8ZM14.2841 12.3409L17.1761 17.6364H14.4602L11.6307 12.3409H14.2841Z" fill="#FF7F48"/>
</svg>
