<svg width="43" height="32" viewBox="0 0 43 32" fill="none" xmlns="http://www.w3.org/2000/svg">
<mask id="mask0_676_33" style="mask-type:luminance" maskUnits="userSpaceOnUse" x="0" y="0" width="43" height="32">
<path d="M0 0H42.5343V31.9007H0V0Z" fill="white"/>
</mask>
<g mask="url(#mask0_676_33)">
<path fill-rule="evenodd" clip-rule="evenodd" d="M0 0H42.5343V31.9007H0V0Z" fill="#F7FCFF"/>
<path fill-rule="evenodd" clip-rule="evenodd" d="M0 19.4949V22.1533H42.5343V19.4949H0Z" fill="#E31D1C"/>
<path fill-rule="evenodd" clip-rule="evenodd" d="M0 24.3686V27.027H42.5343V24.3686H0Z" fill="#E31D1C"/>
<path fill-rule="evenodd" clip-rule="evenodd" d="M0 9.74731V12.4057H42.5343V9.74731H0Z" fill="#E31D1C"/>
<path fill-rule="evenodd" clip-rule="evenodd" d="M0 29.2423V31.9007H42.5343V29.2423H0Z" fill="#E31D1C"/>
<path fill-rule="evenodd" clip-rule="evenodd" d="M0 14.6212V17.2795H42.5343V14.6212H0Z" fill="#E31D1C"/>
<path fill-rule="evenodd" clip-rule="evenodd" d="M0 0V2.65839H42.5343V0H0Z" fill="#E31D1C"/>
<path fill-rule="evenodd" clip-rule="evenodd" d="M0 4.87384V7.53223H42.5343V4.87384H0Z" fill="#E31D1C"/>
<path d="M0 0H26.5839V17.2795H0V0Z" fill="#2E42A5"/>
<path fill-rule="evenodd" clip-rule="evenodd" d="M2.28878 3.90615L1.32394 4.58255L1.64968 3.37881L0.792725 2.61597H1.91202L2.28742 1.63361L2.72761 2.61597H3.68179L2.93207 3.37881L3.22231 4.58255L2.28878 3.90615ZM7.60556 3.90615L6.64073 4.58255L6.96646 3.37881L6.10951 2.61597H7.2288L7.60421 1.63361L8.0444 2.61597H8.99857L8.24885 3.37881L8.5391 4.58255L7.60556 3.90615ZM11.9575 4.58255L12.9223 3.90615L13.8559 4.58255L13.5656 3.37881L14.3154 2.61597H13.3612L12.921 1.63361L12.5456 2.61597H11.4263L12.2832 3.37881L11.9575 4.58255ZM18.2392 3.90615L17.2743 4.58255L17.6001 3.37881L16.743 2.61597H17.8623L18.2378 1.63361L18.6779 2.61597H19.6322L18.8824 3.37881L19.1727 4.58255L18.2392 3.90615ZM1.32394 9.89933L2.28878 9.22293L3.22231 9.89933L2.93207 8.6956L3.68179 7.93276H2.72761L2.28742 6.95039L1.91202 7.93276H0.792725L1.64968 8.6956L1.32394 9.89933ZM7.60556 9.22293L6.64073 9.89933L6.96646 8.6956L6.10951 7.93276H7.2288L7.60421 6.95039L8.0444 7.93276H8.99857L8.24885 8.6956L8.5391 9.89933L7.60556 9.22293ZM11.9575 9.89933L12.9223 9.22293L13.8559 9.89933L13.5656 8.6956L14.3154 7.93276H13.3612L12.921 6.95039L12.5456 7.93276H11.4263L12.2832 8.6956L11.9575 9.89933ZM18.2392 9.22293L17.2743 9.89933L17.6001 8.6956L16.743 7.93276H17.8623L18.2378 6.95039L18.6779 7.93276H19.6322L18.8824 8.6956L19.1727 9.89933L18.2392 9.22293ZM1.32394 15.2161L2.28878 14.5397L3.22231 15.2161L2.93207 14.0124L3.68179 13.2495H2.72761L2.28742 12.2672L1.91202 13.2495H0.792725L1.64968 14.0124L1.32394 15.2161ZM7.60556 14.5397L6.64073 15.2161L6.96646 14.0124L6.10951 13.2495H7.2288L7.60421 12.2672L8.0444 13.2495H8.99857L8.24885 14.0124L8.5391 15.2161L7.60556 14.5397ZM11.9575 15.2161L12.9223 14.5397L13.8559 15.2161L13.5656 14.0124L14.3154 13.2495H13.3612L12.921 12.2672L12.5456 13.2495H11.4263L12.2832 14.0124L11.9575 15.2161ZM18.2392 14.5397L17.2743 15.2161L17.6001 14.0124L16.743 13.2495H17.8623L18.2378 12.2672L18.6779 13.2495H19.6322L18.8824 14.0124L19.1727 15.2161L18.2392 14.5397ZM22.5911 4.58255L23.556 3.90615L24.4894 4.58255L24.1992 3.37881L24.949 2.61597H23.9947L23.5546 1.63361L23.1791 2.61597H22.0598L22.9169 3.37881L22.5911 4.58255ZM23.556 9.22293L22.5911 9.89933L22.9169 8.6956L22.0598 7.93276H23.1791L23.5546 6.95039L23.9947 7.93276H24.949L24.1992 8.6956L24.4894 9.89933L23.556 9.22293ZM22.5911 15.2161L23.556 14.5397L24.4894 15.2161L24.1992 14.0124L24.949 13.2495H23.9947L23.5546 12.2672L23.1791 13.2495H22.0598L22.9169 14.0124L22.5911 15.2161ZM4.94717 6.56454L3.98233 7.24094L4.30807 6.0372L3.45112 5.27437H4.57041L4.94582 4.292L5.38601 5.27437H6.34018L5.59046 6.0372L5.88071 7.24094L4.94717 6.56454ZM9.29912 7.24094L10.264 6.56454L11.1975 7.24094L10.9072 6.0372L11.657 5.27437H10.7028L10.2626 4.292L9.8872 5.27437H8.76791L9.62485 6.0372L9.29912 7.24094ZM15.5808 6.56454L14.6159 7.24094L14.9417 6.0372L14.0846 5.27437H15.204L15.5794 4.292L16.0195 5.27437H16.9738L16.224 6.0372L16.5143 7.24094L15.5808 6.56454ZM3.98233 12.5577L4.94717 11.8813L5.88071 12.5577L5.59046 11.354L6.34018 10.5911H5.38601L4.94582 9.60878L4.57041 10.5911H3.45112L4.30807 11.354L3.98233 12.5577ZM10.264 11.8813L9.29912 12.5577L9.62485 11.354L8.76791 10.5911H9.8872L10.2626 9.60878L10.7028 10.5911H11.657L10.9072 11.354L11.1975 12.5577L10.264 11.8813ZM14.6159 12.5577L15.5808 11.8813L16.5143 12.5577L16.224 11.354L16.9738 10.5911H16.0195L15.5794 9.60878L15.204 10.5911H14.0846L14.9417 11.354L14.6159 12.5577ZM20.8976 6.56454L19.9327 7.24094L20.2585 6.0372L19.4014 5.27437H20.5207L20.8962 4.292L21.3363 5.27437H22.2906L21.5408 6.0372L21.8311 7.24094L20.8976 6.56454ZM19.9327 12.5577L20.8976 11.8813L21.8311 12.5577L21.5408 11.354L22.2906 10.5911H21.3363L20.8962 9.60878L20.5207 10.5911H19.4014L20.2585 11.354L19.9327 12.5577Z" fill="#F7FCFF"/>
</g>
</svg>
