<svg width="17" height="17" viewBox="0 0 17 17" fill="none" xmlns="http://www.w3.org/2000/svg">
<path d="M8.37608 16.7522C3.7556 16.7522 0 12.9966 0 8.37608C0 3.7556 3.7556 0 8.37608 0C12.9966 0 16.7522 3.7556 16.7522 8.37608C16.7522 12.9966 12.9966 16.7522 8.37608 16.7522ZM8.37608 1.16875C4.40231 1.16875 1.16875 4.40231 1.16875 8.37608C1.16875 12.3498 4.40231 15.5834 8.37608 15.5834C12.3498 15.5834 15.5834 12.3498 15.5834 8.37608C15.5834 4.40231 12.3498 1.16875 8.37608 1.16875Z" fill="white"/>
<path d="M11.2663 11.4379C11.165 11.4379 11.0638 11.4146 10.9703 11.3522L8.55483 9.91078C7.95487 9.55236 7.51074 8.7654 7.51074 8.07193V4.87735C7.51074 4.55789 7.77566 4.29297 8.09512 4.29297C8.41458 4.29297 8.6795 4.55789 8.6795 4.87735V8.07193C8.6795 8.35244 8.91325 8.7654 9.15479 8.90565L11.5702 10.3471C11.8507 10.5107 11.9364 10.8692 11.7728 11.1497C11.6559 11.3367 11.4611 11.4379 11.2663 11.4379Z" fill="white"/>
</svg>
